<svg width="32" height="32" viewBox="0 0 32 32" fill="none" xmlns="http://www.w3.org/2000/svg">
<g clip-path="url(#clip0_1_2)">
<path d="M16 32.0001C24.8366 32.0001 32.0001 24.8366 32.0001 16C32.0001 7.16346 24.8366 0 16 0C7.16346 0 0 7.16346 0 16C0 24.8366 7.16346 32.0001 16 32.0001Z" fill="#2374FF"/>
<path d="M32 16C32 24.8001 24.8 32.0001 16 32.0001C10.9 32.0001 6.39998 29.7001 3.49994 26.0001C6.19994 28.2001 9.69995 29.5001 13.4999 29.5001C22.3 29.5001 29.5 22.3001 29.5 13.5001C29.5 9.70011 28.2 6.20009 25.9999 3.50009C29.7 6.39999 32 10.9 32 16Z" fill="#2374FF"/>
<path d="M24.7 11.4L14.3 22.8C13.6 23.6001 12.4 23.6001 11.7 22.8L7.29999 17.9C6.70002 17.2 6.70002 16.1 7.39998 15.4C8.10001 14.8 9.19998 14.8 9.90001 15.5L13 19L22.1 9.09999C22.8 8.39996 23.9 8.29998 24.6 9.00001C25.3 9.59999 25.3 10.8 24.7 11.4Z" fill="white"/>
</g>
<defs>
<clipPath id="clip0_1_2">
<rect width="32" height="32" fill="white"/>
</clipPath>
</defs>
</svg>
